<svg width="16" height="16" viewBox="0 0 16 16" fill="none" xmlns="http://www.w3.org/2000/svg">
<g id="Icon / headset" clip-path="url(#clip0_11049_22386)">
<path id="Vector" d="M16 11.5838C16 9.75038 15.2967 8.75329 14.3425 8.21729C14.264 2.99838 12.2989 0.666016 8 0.666016C3.70109 0.666016 1.73091 3.00347 1.65673 8.2362C0.743273 8.76711 0 9.75256 0 11.5838C0 15.1402 2.64582 15.5511 4.63636 15.5511C4.94982 15.5511 5.22764 15.3504 5.32655 15.0522C6.06836 12.8158 6.06836 10.3511 5.32655 8.11474C5.22764 7.81729 4.94982 7.61583 4.63636 7.61583C4.29164 7.61583 3.73527 7.61583 3.12582 7.72347C3.32145 3.09802 5.22182 2.11911 8 2.11911C10.7782 2.11911 12.6793 3.09874 12.8742 7.72638C12.3636 7.63983 11.8444 7.61583 11.3636 7.61583C11.0502 7.61583 10.7724 7.81656 10.6735 8.11474C10.0327 10.0471 9.94618 12.1489 10.4124 14.1278C9.63855 14.1409 8.89745 14.1184 8.19855 14.0617C7.79055 14.0318 7.44727 14.3278 7.41527 14.7286C7.38327 15.1286 7.68146 15.4791 8.08146 15.5118C8.69164 15.5606 9.33091 15.586 9.99345 15.586C10.4465 15.586 10.9105 15.5744 11.3833 15.5511C12.5491 15.5511 16 15.5293 16 11.5838ZM4.09964 14.0842C2.15855 13.9838 1.45455 13.2907 1.45455 11.5838C1.45455 9.87692 2.15855 9.18383 4.09964 9.08347C4.53891 10.7133 4.53891 12.4537 4.09964 14.0835V14.0842ZM11.9004 14.0842C11.4611 12.4544 11.4611 10.7133 11.9004 9.0842C13.8415 9.18456 14.5455 9.87765 14.5455 11.5846C14.5455 13.2915 13.8415 13.9838 11.9004 14.0842Z" fill="#FEA972"/>
</g>
<defs>
<clipPath id="clip0_11049_22386">
<rect width="16" height="16" fill="white"/>
</clipPath>
</defs>
</svg>
