<svg width="16" height="16" viewBox="0 0 16 16" fill="none" xmlns="http://www.w3.org/2000/svg">
<g id="Icon / english" clip-path="url(#clip0_11049_22338)">
<path id="Vector" d="M12.6667 2.66667H12.5993C12.2893 1.14733 10.9433 0 9.33333 0H3.33333C1.49533 0 -9.34349e-07 1.49533 -9.34349e-07 3.33333V11.9033C-0.0360009 13.012 1.32267 13.74 2.226 13.0947L4.204 11.776C4.664 13.0673 5.886 14 7.33333 14H11.1313L13.7733 15.7613C14.6773 16.406 16.0353 15.6787 16 14.57V6C16 4.162 14.5047 2.66667 12.6667 2.66667ZM1.486 11.9853C1.45267 12.038 1.30733 11.9593 1.33333 11.9033V3.33333C1.33333 2.23067 2.23067 1.33333 3.33333 1.33333H9.33333C10.436 1.33333 11.3333 2.23067 11.3333 3.33333V8C11.3333 9.10267 10.436 10 9.33333 10H4.66667C4.53467 9.99933 4.41133 10.052 4.29667 10.112L1.486 11.9853ZM14.6667 14.57C14.6927 14.6273 14.5447 14.7053 14.5133 14.652L11.7033 12.7787C11.594 12.706 11.4653 12.6667 11.3333 12.6667H7.33333C6.46533 12.6667 5.732 12.1073 5.456 11.3333H9.33333C11.1713 11.3333 12.6667 9.838 12.6667 8V4C13.7693 4 14.6667 4.89733 14.6667 6V14.57ZM5.13333 8H4C3.632 8 3.33333 7.70133 3.33333 7.33333V4C3.33333 3.632 3.632 3.33333 4 3.33333H5.13333C5.428 3.33333 5.66667 3.572 5.66667 3.86667C5.66667 4.16133 5.428 4.4 5.13333 4.4H4.39933V5.134H5.13333C5.428 5.134 5.66667 5.37267 5.66667 5.66733C5.66667 5.962 5.428 6.20067 5.13333 6.20067H4.39933V6.93467H5.13333C5.428 6.93467 5.66667 7.17333 5.66667 7.468C5.66667 7.76267 5.428 8.00133 5.13333 8.00133V8ZM6.33333 7.502V3.94267C6.33333 3.606 6.606 3.33333 6.94267 3.33333C7.17867 3.33333 7.39267 3.46933 7.494 3.68267L8.44933 5.70333V3.83133C8.44933 3.55667 8.672 3.33333 8.94733 3.33333C9.22267 3.33333 9.44533 3.556 9.44533 3.83133V7.39067C9.44533 7.72733 9.17267 8 8.836 8C8.60067 8 8.386 7.864 8.28533 7.65133L7.33067 5.63467V7.502C7.33067 7.77667 7.108 8 6.83267 8C6.55733 8 6.33467 7.77733 6.33467 7.502H6.33333Z" fill="#FEA972"/>
</g>
<defs>
<clipPath id="clip0_11049_22338">
<rect width="16" height="16" fill="white"/>
</clipPath>
</defs>
</svg>
