<svg width="16" height="16" viewBox="0 0 16 16" fill="none" xmlns="http://www.w3.org/2000/svg">
<g id="Icon / terms-info" clip-path="url(#clip0_11049_22376)">
<path id="Vector" d="M6.66667 15.3333C6.66667 15.7013 6.368 16 6 16H3.33333C1.49533 16 0 14.5047 0 12.6667V3.33333C0 1.49533 1.49533 0 3.33333 0H8.66667C10.5047 0 12 1.49533 12 3.33333V4.66667C12 5.03467 11.7013 5.33333 11.3333 5.33333C10.9653 5.33333 10.6667 5.03467 10.6667 4.66667V3.33333C10.6667 2.23067 9.76933 1.33333 8.66667 1.33333H3.33333C2.23067 1.33333 1.33333 2.23067 1.33333 3.33333V12.6667C1.33333 13.7693 2.23067 14.6667 3.33333 14.6667H6C6.368 14.6667 6.66667 14.9653 6.66667 15.3333ZM9.33333 4C9.33333 3.632 9.03467 3.33333 8.66667 3.33333H3.33333C2.96533 3.33333 2.66667 3.632 2.66667 4C2.66667 4.368 2.96533 4.66667 3.33333 4.66667H8.66667C9.03467 4.66667 9.33333 4.368 9.33333 4ZM3.33333 10C2.96533 10 2.66667 10.2987 2.66667 10.6667C2.66667 11.0347 2.96533 11.3333 3.33333 11.3333H4.66667C5.03467 11.3333 5.33333 11.0347 5.33333 10.6667C5.33333 10.2987 5.03467 10 4.66667 10H3.33333ZM16 11.3333C16 13.9067 13.9067 16 11.3333 16C8.76 16 6.66667 13.9067 6.66667 11.3333C6.66667 8.76 8.76 6.66667 11.3333 6.66667C13.9067 6.66667 16 8.76 16 11.3333ZM14.6667 11.3333C14.6667 9.49533 13.1713 8 11.3333 8C9.49533 8 8 9.49533 8 11.3333C8 13.1713 9.49533 14.6667 11.3333 14.6667C13.1713 14.6667 14.6667 13.1713 14.6667 11.3333ZM11.3333 8.66667C10.7813 8.66667 10.3333 9.11467 10.3333 9.66667C10.3333 10.2187 10.7813 10.6667 11.3333 10.6667C11.8853 10.6667 12.3333 10.2187 12.3333 9.66667C12.3333 9.11467 11.8853 8.66667 11.3333 8.66667ZM11.3333 11.3333C10.9653 11.3333 10.6667 11.632 10.6667 12V13.3333C10.6667 13.7013 10.9653 14 11.3333 14C11.7013 14 12 13.7013 12 13.3333V12C12 11.632 11.7013 11.3333 11.3333 11.3333ZM6.66667 7.33333C6.66667 6.96533 6.368 6.66667 6 6.66667H3.33333C2.96533 6.66667 2.66667 6.96533 2.66667 7.33333C2.66667 7.70133 2.96533 8 3.33333 8H6C6.368 8 6.66667 7.70133 6.66667 7.33333Z" fill="#FEA972"/>
</g>
<defs>
<clipPath id="clip0_11049_22376">
<rect width="16" height="16" fill="white"/>
</clipPath>
</defs>
</svg>
